<?xml version="1.0" encoding="utf-8"?>
<svg version="1.1" xmlns:xlink="http://www.w3.org/1999/xlink" width="40px" height="40px" xmlns="http://www.w3.org/2000/svg">
  <g transform="matrix(1 0 0 1 -1363 -135 )">
    <path d="M 11.7446808510638 16.4042553191489  C 11.0212765957447 16.8936170212766  10.8510638297872 17.8723404255319  11.3404255319149 18.5957446808511  L 17.8297872340426 28.2765957446809  C 18.2978723404255 29  19.2553191489362 29.1914893617021  19.9787234042553 28.7021276595745  C 20.1276595744681 28.5957446808511  20.2765957446808 28.468085106383  20.3829787234043 28.2978723404255  L 37.1702127659574 10.8297872340426  C 37.6808510638298 10.1276595744681  37.5106382978723 9.12765957446809  36.8297872340425 8.61702127659575  C 36.1489361702128 8.10638297872341  35.1702127659574 8.25531914893617  34.6595744680851 8.93617021276596  L 34.6382978723404 8.95744680851064  L 17.8510638297872 26.4255319148936  L 20.4042553191489 26.468085106383  L 13.9148936170213 16.8085106382979  C 13.4468085106383 16.0851063829787  12.4893617021277 15.8936170212766  11.7659574468085 16.3829787234043  C 11.7659574468085 16.3829787234043  11.7446808510638 16.3829787234043  11.7446808510638 16.4042553191489  Z M 39.936170212766 21.2765957446809  C 39.2340425531915 31.8510638297872  30.4468085106383 39.9787234042553  20.0212765957447 39.9787234042553  C 19.5744680851064 39.9787234042553  19.1489361702128 39.9574468085106  18.7021276595745 39.936170212766  C 13.3829787234042 39.5957446808511  8.51063829787234 37.1914893617021  5 33.1702127659575  C 1.48936170212766 29.1702127659574  -0.255319148936174 24.0212765957447  0.0851063829787193 18.7021276595745  C 0.787234042553188 7.70212765957447  10.2978723404255 -0.659574468085108  21.2978723404255 0.0638297872340414  C 25.0425531914894 0.297872340425531  28.6382978723404 1.59574468085106  31.6808510638298 3.80851063829787  C 32.2340425531915 4.21276595744681  32.3617021276596 5  31.9574468085106 5.5531914893617  C 31.5531914893617 6.1063829787234  30.7659574468085 6.23404255319149  30.2127659574468 5.82978723404255  C 27.5531914893617 3.91489361702128  24.4042553191489 2.76595744680851  21.1276595744681 2.5531914893617  C 11.531914893617 1.93617021276596  3.19148936170213 9.25531914893617  2.57446808510638 18.8510638297872  C 2.27659574468085 23.5106382978723  3.78723404255319 28  6.87234042553191 31.5106382978723  C 9.95744680851064 35.0212765957447  14.2127659574468 37.1276595744681  18.8723404255319 37.4255319148936  C 28.4893617021277 38.063829787234  36.8085106382979 30.7446808510638  37.4468085106383 21.1276595744681  C 37.5531914893617 19.531914893617  37.4468085106383 17.9148936170213  37.1063829787234 16.3617021276596  C 36.9574468085106 15.6808510638298  37.4042553191489 15.0212765957447  38.063829787234 14.8723404255319  C 38.7446808510638 14.7234042553191  39.4042553191489 15.1702127659574  39.5531914893617 15.8297872340426  C 39.936170212766 17.6170212765957  40.063829787234 19.4468085106383  39.936170212766 21.2765957446809  Z " fill-rule="nonzero" fill="#006f61" stroke="none" transform="matrix(1 0 0 1 1363 135 )" />
  </g>
</svg>